<svg width="10" height="10" viewBox="0 0 10 10" fill="none" xmlns="http://www.w3.org/2000/svg">
<g clip-path="url(#clip0_5138_22)">
<path d="M3.90886 9.59638C4.13282 9.59638 4.3099 9.49738 4.4349 9.30471L9.35676 1.55469C9.4505 1.40365 9.48697 1.28906 9.48697 1.16927C9.48697 0.882812 9.2995 0.695312 9.01303 0.695312C8.8047 0.695312 8.6901 0.76302 8.5651 0.960938L3.88803 8.41405L1.46095 5.23698C1.33074 5.05469 1.20053 4.98177 1.01303 4.98177C0.716156 4.98177 0.513031 5.1849 0.513031 5.47135C0.513031 5.59115 0.565114 5.72657 0.664072 5.85157L3.3672 9.29425C3.52344 9.49738 3.6849 9.59638 3.90886 9.59638Z" fill="#702AC3"/>
</g>
<defs>
<clipPath id="clip0_5138_22">
<rect width="8.97393" height="9.19273" fill="white" transform="translate(0.513031 0.403641)"/>
</clipPath>
</defs>
</svg>
